<svg width="189" height="190" viewBox="0 0 189 190" fill="none" xmlns="http://www.w3.org/2000/svg">
<path d="M45.0879 63.4871C45.1245 61.3863 46.7801 59.6719 48.8783 59.5621L111.882 56.2645C115.508 56.0747 117.491 60.4256 114.968 63.0377L50.8679 129.416C48.3455 132.028 43.9281 130.198 43.9912 126.567L45.0879 63.4871Z" fill="black"/>
<path d="M131.109 138.872C131.072 140.973 129.417 142.687 127.318 142.797L64.3147 146.094C60.6884 146.284 58.7058 141.933 61.2283 139.321L125.329 72.9434C127.851 70.3313 132.269 72.1609 132.205 75.7916L131.109 138.872Z" fill="black"/>
<rect x="76" width="113" height="25" rx="4" fill="black"/>
<rect x="189" y="17" width="96" height="25" rx="4" transform="rotate(90 189 17)" fill="black"/>
</svg>
